<svg width="77" height="86" viewBox="0 0 77 86" fill="none" xmlns="http://www.w3.org/2000/svg">
<g clip-path="url(#clip0)">
<path d="M68.052 0.0788574H9.74356C4.82651 0.0788574 0.823242 4.00127 0.823242 8.86165V66.5041C0.823242 71.3644 4.82651 75.2869 9.74356 75.2869H59.0881L56.7819 67.3994L62.3517 72.4729L67.6168 77.2481L76.9723 85.3487V8.86165C76.9723 4.00127 72.969 0.0788574 68.052 0.0788574ZM51.2557 55.7601C51.2557 55.7601 49.6892 53.9268 48.3838 52.3066C54.0841 50.7291 56.2597 47.2331 56.2597 47.2331C54.4757 48.3842 52.7786 49.1943 51.2557 49.7485C49.08 50.6439 46.9913 51.2408 44.9462 51.5818C40.7689 52.3493 36.9396 52.1361 33.6761 51.5392C31.1958 51.0702 29.0637 50.3881 27.2796 49.7059C26.2788 49.3222 25.1909 48.8532 24.1031 48.2563C23.9725 48.171 23.842 48.1284 23.7115 48.0431C23.6244 48.0005 23.5809 47.9579 23.5374 47.9152C22.7542 47.4889 22.319 47.1904 22.319 47.1904C22.319 47.1904 24.4077 50.6012 29.9339 52.2214C28.6285 53.8415 27.0185 55.7601 27.0185 55.7601C17.402 55.4616 13.7468 49.2796 13.7468 49.2796C13.7468 35.5511 20.0128 24.4234 20.0128 24.4234C26.2788 19.8188 32.2402 19.9467 32.2402 19.9467L32.6753 20.4583C24.8428 22.6754 21.2312 26.0435 21.2312 26.0435C21.2312 26.0435 22.1885 25.5319 23.7985 24.8071C28.4545 22.8033 32.1531 22.249 33.6761 22.1211C33.9372 22.0785 34.1548 22.0358 34.4158 22.0358C37.0702 21.6948 40.0726 21.6095 43.2056 21.9506C47.3394 22.4196 51.7778 23.6133 56.3033 26.0435C56.3033 26.0435 52.8657 22.8459 45.4683 20.6289L46.0775 19.9467C46.0775 19.9467 52.0389 19.8188 58.3049 24.4234C58.3049 24.4234 64.5709 35.5511 64.5709 49.2796C64.5709 49.2796 60.8722 55.4616 51.2557 55.7601ZM31.0218 35.8496C28.5415 35.8496 26.5834 37.9813 26.5834 40.582C26.5834 43.1828 28.585 45.3145 31.0218 45.3145C33.5021 45.3145 35.4602 43.1828 35.4602 40.582C35.5037 37.9813 33.5021 35.8496 31.0218 35.8496ZM46.9043 35.8496C44.424 35.8496 42.4659 37.9813 42.4659 40.582C42.4659 43.1828 44.4675 45.3145 46.9043 45.3145C49.3846 45.3145 51.3427 43.1828 51.3427 40.582C51.3427 37.9813 49.3846 35.8496 46.9043 35.8496Z" fill="white"/>
</g>
<defs>
<clipPath id="clip0">
<rect width="76.149" height="85.3947" fill="white" transform="translate(0.823242 0.0788574)"/>
</clipPath>
</defs>
</svg>
