<svg width="1440" height="1040" viewBox="0 0 1440 1040" fill="none" xmlns="http://www.w3.org/2000/svg">
<path d="M1264.02 221.892C1264.02 221.892 1012.39 167.312 961.34 442.082C930.195 609.671 1073.02 712.126 1161.91 718.757C1490.13 743.226 1481.35 376.555 1481.35 376.555" stroke="#CDD0C4" stroke-miterlimit="10" stroke-dasharray="4 4"/>
<path d="M902.779 939.133C901.675 938.628 900.571 938.124 899.467 937.582" stroke="#CDD0C4" stroke-miterlimit="10"/>
<path d="M893.078 934.332C800.221 883.917 782.431 746.308 782.431 746.308L780.549 712.518" stroke="#CDD0C4" stroke-miterlimit="10" stroke-dasharray="3.94 3.94"/>
<path d="M780.35 708.838L780.151 705.102" stroke="#CDD0C4" stroke-miterlimit="10"/>
<path d="M832.541 709.492H692.359C687.672 709.492 683.89 705.569 683.89 700.75V610.829C683.89 605.991 687.69 602.087 692.359 602.087H832.541C837.229 602.087 841.011 606.01 841.011 610.829V700.75C841.011 705.569 837.229 709.492 832.541 709.492Z" stroke="#F6A915" stroke-width="1.3061" stroke-miterlimit="10"/>
<path d="M825.973 671.461H786.032C783.227 671.461 780.946 669.108 780.946 666.212V634.981C780.946 632.086 783.227 629.732 786.032 629.732H825.954C828.76 629.732 831.04 632.086 831.04 634.981V666.212C831.058 669.108 828.778 671.461 825.973 671.461Z" fill="#CDD0C4"/>
<path d="M840.523 610.511C840.523 605.673 836.722 601.769 832.053 601.769H691.871C687.184 601.769 683.401 605.692 683.401 610.511V611.987L840.559 612.846L840.523 610.511Z" fill="#F6A915"/>
<path d="M829.447 695.408L825.81 720.961L834.876 712.443L847.653 713.433L829.447 695.408Z" fill="#23B3AB"/>
<path d="M749.874 634.495C756.57 634.495 763.284 634.495 769.98 634.495" stroke="#CDD0C4" stroke-width="0.718" stroke-miterlimit="10"/>
<path d="M695.526 634.495C712.303 634.495 729.079 634.495 745.837 634.495" stroke="#CDD0C4" stroke-width="0.718" stroke-miterlimit="10"/>
<path d="M729.767 643.162C743.177 643.162 756.587 643.162 769.979 643.162" stroke="#CDD0C4" stroke-width="0.718" stroke-miterlimit="10"/>
<path d="M695.526 643.162C705.498 643.162 715.47 643.162 725.441 643.162" stroke="#CDD0C4" stroke-width="0.718" stroke-miterlimit="10"/>
<path d="M761.165 651.829C764.097 651.829 767.047 651.829 769.978 651.829" stroke="#CDD0C4" stroke-width="0.718" stroke-miterlimit="10"/>
<path d="M695.526 651.829C715.614 651.829 737.512 651.829 757.202 651.829" stroke="#CDD0C4" stroke-width="0.718" stroke-miterlimit="10"/>
<path d="M730.309 660.048C743.538 660.048 756.767 660.048 769.978 660.048" stroke="#CDD0C4" stroke-width="0.718" stroke-miterlimit="10"/>
<path d="M695.526 660.048C705.86 660.048 716.194 660.048 726.509 660.048" stroke="#CDD0C4" stroke-width="0.718" stroke-miterlimit="10"/>
<path d="M743.774 669.164C752.515 669.164 761.238 669.164 769.979 669.164" stroke="#CDD0C4" stroke-width="0.718" stroke-miterlimit="10"/>
<path d="M695.526 669.164C710.185 669.164 724.862 669.164 739.521 669.164" stroke="#CDD0C4" stroke-width="0.718" stroke-miterlimit="10"/>
<path d="M740.661 691.112H700.883C697.915 691.112 695.49 688.627 695.49 685.545C695.49 682.482 697.897 679.979 700.883 679.979H740.661C743.629 679.979 746.054 682.463 746.054 685.545C746.054 688.609 743.629 691.112 740.661 691.112Z" fill="#23B3AB"/>
<path d="M1028.19 415.053C1034.65 408.385 1047.59 384.363 1033.39 381.692C1019.18 379.021 980.471 448.302 966.916 438.309C953.361 428.315 1024.36 313.756 994.026 298.439C975.567 289.119 956.184 303.52 937.834 316.483C917.221 331.016 898.671 344.016 899.105 325.169C899.322 315.886 957.216 256 907.521 220.025C879.976 200.075 829.521 230.093 781.237 259.12C742.436 282.45 701.5 312.206 661.668 286.765C602.707 249.127 617.474 2.95463 445.965 -4.18079H-18.6846V796.107C-18.6846 796.107 16.4967 942.85 214.373 921.668C412.25 900.486 570.71 673.068 596.047 654.463C633.925 626.65 667.513 638.586 649.923 677.924C632.332 717.262 659.659 750.847 713.064 714.423C809.885 648.392 884.917 368.729 958.971 349.807C976.037 345.436 910.452 471.165 954.737 468.998C974.535 468.027 1019.89 400.427 1024.54 396.953C1041.62 384.195 1025.86 414.044 1025.86 414.044L1028.19 415.053Z" fill="#23B3AB"/>
<path d="M1459.05 392.227C1489.22 392.227 1513.67 366.988 1513.67 335.854C1513.67 304.719 1489.22 279.48 1459.05 279.48C1428.89 279.48 1404.44 304.719 1404.44 335.854C1404.44 366.988 1428.89 392.227 1459.05 392.227Z" fill="#30B47A"/>
<path d="M1463.63 385.914C1493.8 385.914 1518.25 360.674 1518.25 329.54C1518.25 298.406 1493.8 273.167 1463.63 273.167C1433.47 273.167 1409.01 298.406 1409.01 329.54C1409.01 360.674 1433.47 385.914 1463.63 385.914Z" stroke="#0C8563" stroke-width="2" stroke-miterlimit="10"/>
<path d="M1435.09 340.654L1448.45 354.421L1487.9 313.7" stroke="white" stroke-width="4.6663" stroke-miterlimit="10"/>
<path d="M1028.81 712.929C1055.34 712.929 1076.86 690.725 1076.86 663.336C1076.86 635.946 1055.34 613.743 1028.81 613.743C1002.27 613.743 980.76 635.946 980.76 663.336C980.76 690.725 1002.27 712.929 1028.81 712.929Z" fill="#FF5940"/>
<path d="M1032.85 707.381C1059.38 707.381 1080.89 685.178 1080.89 657.788C1080.89 630.399 1059.38 608.195 1032.85 608.195C1006.31 608.195 984.797 630.399 984.797 657.788C984.797 685.178 1006.31 707.381 1032.85 707.381Z" stroke="#D15036" stroke-width="1.7593" stroke-miterlimit="10"/>
<path d="M1027.74 668.585C1037.54 668.585 1045.48 660.389 1045.48 650.279C1045.48 640.169 1037.54 631.974 1027.74 631.974C1017.95 631.974 1010.01 640.169 1010.01 650.279C1010.01 660.389 1017.95 668.585 1027.74 668.585Z" stroke="white" stroke-width="3.5186" stroke-miterlimit="10"/>
<path d="M1040.1 665.503L1054.81 680.689L1040.1 665.503Z" stroke="white" stroke-width="3.5186" stroke-miterlimit="10"/>
<path d="M1215.36 368.243C1216.68 364.732 1217.4 360.996 1217.51 357.241C1217.53 356.475 1216.88 355.84 1216.15 355.84C1215.39 355.84 1214.81 356.475 1214.8 357.241C1214.69 360.772 1213.98 364.227 1212.75 367.496C1212.48 368.206 1213.04 369.028 1213.69 369.215C1214.45 369.439 1215.09 368.953 1215.36 368.243Z" fill="#221660"/>
<path d="M1400.91 588.937L1479.42 715.301C1479.42 715.301 1527.1 623.288 1534.18 613.799C1541.25 604.31 1610.19 643.797 1610.19 643.797C1610.19 643.797 1570.83 725.986 1551.06 773.225C1535.64 810.06 1446.91 803.579 1446.91 803.579L1379.77 702.17L1400.91 588.937Z" fill="#23B3AB"/>
<path d="M1261.76 686.386C1274.42 712.387 1360.64 862.679 1396.69 885.281C1432.74 907.883 1528.15 864.136 1587.53 842.244L1559.26 760.523L1447.58 790.428L1391.75 707.998C1391.75 707.998 1426.28 623.064 1400.89 588.937L1261.76 686.386Z" fill="#23B3AB"/>
<path d="M1278.7 725.033L1416.2 647.627L1420.83 619.085L1278.7 725.033Z" fill="#221660"/>
<path d="M1288.81 427.082C1297.99 422.487 1384.8 439.878 1384.8 439.878L1375.34 508.841L1330.09 499.072L1288.81 427.082Z" fill="#F6A915"/>
<path d="M1375.34 508.841L1337.57 500.361L1306.8 447.891C1306.8 447.891 1319.22 451.645 1330.74 460.929C1331.36 461.415 1353.87 475.966 1354.47 476.489C1364.35 485.044 1379.05 479.776 1379.05 479.776L1375.34 508.841Z" fill="#F68E15"/>
<path d="M1001.44 473.089C990.224 464.478 981.881 447.611 982.206 437.337C982.532 427.082 988.305 415.819 994.078 413.839C999.851 411.859 1000.18 419.144 998.566 424.43C996.956 429.716 996.956 441.316 996.956 441.316L1001.44 473.089Z" fill="#FE9DA7"/>
<path d="M998.567 424.43C996.956 429.735 996.956 441.316 996.956 441.316L1001.44 473.089C1001.44 473.089 992.377 459.154 989.355 443.52C986.333 427.886 998.567 424.43 998.567 424.43Z" fill="#FF6688"/>
<path d="M1150.78 369.532C1141.66 387.109 1157.26 438.178 1158.51 441.335C1161.3 448.414 1166.24 468.12 1202.69 452.729L1210.9 469.11C1210.9 469.11 1254.57 449.89 1257.88 443.053C1257.88 443.053 1249.6 428.278 1240.26 407.077C1231.53 387.277 1222.29 361.126 1207.1 356.998C1175.63 348.443 1159.07 353.58 1150.78 369.532Z" fill="#FE9DA7"/>
<path d="M1134.79 390.042C1134.79 390.042 1143.07 409.991 1177.3 392.321C1177.3 392.321 1182.27 402.015 1192.21 402.575L1193.87 414.549L1202.16 411.13C1202.16 411.13 1205.47 444.753 1211.56 447.611C1217.64 450.469 1247.44 436.777 1251.32 430.519C1252.76 428.166 1248.33 403.64 1247.44 391.76C1245.98 371.96 1246.3 352.571 1227.3 362.378C1227.3 362.378 1220.73 347.304 1214.11 343.325C1207.48 339.328 1200.52 346.744 1200.52 346.744C1200.52 346.744 1194.44 329.073 1176.77 331.352C1159.11 333.631 1155.24 345.025 1155.24 345.025C1155.24 345.025 1128.74 323.936 1108.85 351.301C1093.72 372.11 1114.37 394.618 1125.41 392.339L1134.79 390.042Z" fill="#221660"/>
<path d="M1027.11 451.907C1019.72 453.233 1012.68 445.612 1010.75 442.306C1008.83 439 1011.49 435.17 1021.01 423.104C1028.07 414.175 1020.68 409.86 1012.66 413.839C1012.66 413.839 995.671 422.114 992.142 434.685C987.437 451.459 1003.69 477.721 1003.69 477.721C1003.69 477.721 1018.11 525.708 1050.51 566.428C1076.15 598.669 1098.93 593.569 1112.07 593.233C1125.23 592.897 1165.68 574.685 1165.68 574.685L1126.17 516.742L1098.59 528.361C1075.5 507.832 1050.16 460.182 1050.16 460.182L1027.11 451.907Z" fill="#FE9DA7"/>
<path d="M1021.01 423.104C1011.49 435.17 1008.83 439 1010.75 442.306C1012.66 445.612 1019.72 453.233 1027.11 451.907L1014.98 456.128L1011.52 463.918C1011.52 463.918 1003.65 449.946 1005.55 440.849C1007.43 431.752 1021.01 423.104 1021.01 423.104Z" fill="#FF6688"/>
<path d="M1126.19 516.742L1165.7 574.685C1165.7 574.685 1150.98 581.316 1136.41 586.639C1133.25 587.797 1144.29 582.25 1142.78 572.032C1139.71 551.336 1126.19 516.742 1126.19 516.742Z" fill="#FF6688"/>
<path d="M1384.69 440.905C1384.08 441.148 1417.1 449.852 1425.9 445.5C1438.21 439.411 1455.81 395.926 1455.81 395.926C1455.81 395.926 1448.97 372.035 1453.72 369.868C1458.46 367.702 1462.66 380.179 1462.66 380.179C1462.66 380.179 1470.02 340.542 1474.76 341.084C1479.5 341.626 1481.26 349.676 1481.35 361.145C1481.35 361.145 1482.71 365.18 1483.76 360.828C1484.81 356.475 1487.18 341.906 1491.9 340.262C1496.64 338.637 1499.66 354.626 1497.04 365.497C1497.04 365.497 1506.18 346.893 1508.8 347.435C1511.43 347.976 1514.72 359.539 1508.95 372.577C1508.95 372.577 1516.64 362.359 1519.26 363.984C1521.89 365.609 1520.11 382.066 1506.34 403.323C1506.34 403.323 1500.79 474.172 1452.38 502.957C1435.53 512.969 1414.59 514.351 1396.02 511.232C1383.91 509.196 1375.32 506.693 1375.32 506.693L1384.69 440.905Z" fill="#FE9DA7"/>
<path d="M1199.36 416.958C1203.39 404.443 1206.72 402.594 1212.5 409.748C1218.27 416.902 1211.48 431.267 1203.39 430.669C1195.3 430.071 1199.36 416.958 1199.36 416.958Z" fill="#FE9DA7"/>
<path d="M1123.86 509.98C1124.96 520.235 1160.72 576.385 1165.7 574.685C1169.01 573.545 1192.75 561.012 1192.75 561.012C1192.37 561.142 1235.57 662.794 1274.41 727.312C1274.41 727.312 1393.83 649.383 1435.8 607.224C1435.8 607.224 1303.18 435.077 1288.81 427.101L1176.18 484.651L1123.86 509.98Z" fill="#F6A915"/>
<path d="M1404.74 670.415C1401.83 683.397 1397.31 695.893 1391.19 707.643C1390.95 708.091 1390.9 708.707 1391.19 709.156C1397.38 718.364 1403.57 727.573 1409.77 736.782C1419.69 751.538 1429.63 766.295 1439.54 781.051C1441.82 784.432 1444.09 787.813 1446.37 791.194C1446.75 791.755 1447.34 792.072 1448.01 791.885C1459.98 788.598 1471.96 785.329 1483.92 782.041C1502.83 776.867 1521.74 771.675 1540.67 766.5C1545.05 765.305 1549.43 764.091 1553.83 762.895C1555.64 762.391 1554.88 759.496 1553.05 760C1541.09 763.288 1529.11 766.557 1517.15 769.844C1498.23 775.018 1479.32 780.211 1460.39 785.385C1456.01 786.58 1451.63 787.795 1447.24 788.99C1447.78 789.214 1448.34 789.457 1448.88 789.681C1442.69 780.472 1436.5 771.264 1430.3 762.055C1420.38 747.298 1410.44 732.542 1400.53 717.785C1398.25 714.404 1395.98 711.023 1393.7 707.643C1393.7 708.147 1393.7 708.651 1393.7 709.156C1399.95 697.201 1404.6 684.443 1407.55 671.218C1407.96 669.332 1405.16 668.529 1404.74 670.415Z" fill="#221660"/>
<path d="M1422.26 752.753L1392.44 708.39C1395.86 701.889 1398.79 695.128 1401.22 688.16C1403.19 682.501 1422.26 752.753 1422.26 752.753Z" fill="#221660"/>
<path d="M1396.04 511.213C1383.93 509.177 1375.34 506.674 1375.34 506.674L1384.69 440.905C1384.69 440.905 1385.83 485.716 1390.32 495.934C1393.58 503.312 1396.04 511.213 1396.04 511.213Z" fill="#FF6688"/>
<path d="M1009.75 468.755L1011.6 461.77L1013.57 453.681L1021.02 423.085C1021.02 423.085 1022.6 417.743 1028.39 412.961C1029.22 412.27 1030.13 411.616 1031.14 410.962C1031.14 410.962 1031.9 412.083 1032.75 414.063C1033.93 416.79 1035.29 421.142 1035.07 426.429C1034.85 431.547 1032.34 445.799 1030.16 457.286C1029.58 460.369 1029.02 463.245 1028.55 465.692C1027.65 470.362 1027.01 473.481 1027.01 473.481C1027.01 473.481 1021.66 476.246 1017.06 475.461C1012.43 474.695 1009.75 468.755 1009.75 468.755Z" fill="#F6A915"/>
<path d="M1035.05 426.447C1035.27 421.18 1033.91 416.809 1032.73 414.082C1031.88 412.102 1031.12 410.981 1031.12 410.981C1030.11 411.616 1029.21 412.289 1028.37 412.98C1022.58 417.762 1021.01 423.104 1021.01 423.104L1025.28 420.152L1026.67 422.637L1029.97 420.545L1032.12 425.121L1034.02 422.898L1035.05 426.447Z" fill="#FCDE98"/>
<path d="M1032.73 414.082C1031.88 412.102 1031.12 410.981 1031.12 410.981C1030.11 411.616 1029.21 412.289 1028.37 412.98L1032.73 414.082Z" fill="black"/>
<path d="M1028.54 465.711C1029.01 463.264 1029.57 460.387 1030.15 457.305C1029.03 456.222 1026.75 454.317 1023.32 453.345C1018.8 452.056 1015.02 453.177 1013.57 453.681C1012.92 456.371 1012.25 459.08 1011.6 461.769L1028.54 465.711Z" fill="#3A4B73"/>
<path d="M1028.54 465.711C1027.63 470.381 1027 473.5 1027 473.5C1027 473.5 1021.64 476.264 1017.04 475.48C1012.45 474.695 1009.77 468.756 1009.77 468.756L1011.62 461.77C1011.62 461.77 1014.55 458.743 1020.63 460.032C1026.96 461.415 1028.54 465.711 1028.54 465.711Z" fill="#F65015"/>
<path d="M1050.2 460.182C1053.73 448.265 1046.34 439.653 1040.57 430.052C1034.8 420.451 1031.27 421.441 1028.7 423.44C1026.49 425.158 1032.37 444.043 1029.33 450.095C1027.7 453.345 1026.44 456.745 1026.31 460.406C1026.04 467.467 1026.76 476.563 1032.06 478.002C1033.84 478.487 1033.73 459.715 1035.59 459.939C1042.98 460.854 1050.2 460.182 1050.2 460.182Z" fill="#FE9DA7"/>
<path d="M721.333 956.28H700.811C680.777 956.28 664.544 939.525 664.544 918.847C664.544 898.17 680.777 881.414 700.811 881.414H704.811C724.844 881.414 741.078 898.17 741.078 918.847V954.057C741.078 954.973 740.499 955.72 739.775 955.738C735.377 955.888 721.442 956.28 721.333 956.28Z" stroke="#F6A915" stroke-width="0.8265" stroke-miterlimit="10"/>
<path d="M943.917 877.94L941.944 891.856L953.834 887.765L943.917 877.94Z" fill="#FF6688"/>
<path d="M1313.43 330.997L1310.82 349.209L1326.4 343.848L1313.43 330.997Z" fill="#FF6688"/>
<path d="M3.97367 447.443L1.38574 465.673L16.9676 460.313L3.97367 447.443Z" fill="#FF6688"/>
<path d="M752.426 555.912L749.838 574.143L765.42 568.782L752.426 555.912Z" fill="#FF6688"/>
<path d="M686.463 267.656C689.532 267.656 692.019 265.089 692.019 261.922C692.019 258.755 689.532 256.187 686.463 256.187C683.395 256.187 680.907 258.755 680.907 261.922C680.907 265.089 683.395 267.656 686.463 267.656Z" fill="#F6A915"/>
<path opacity="0.5" d="M574.367 215.261C576.276 215.261 577.823 213.664 577.823 211.694C577.823 209.723 576.276 208.126 574.367 208.126C572.458 208.126 570.91 209.723 570.91 211.694C570.91 213.664 572.458 215.261 574.367 215.261Z" fill="white"/>
<path d="M920.099 722.698C922.977 722.698 925.311 720.289 925.311 717.318C925.311 714.347 922.977 711.939 920.099 711.939C917.22 711.939 914.887 714.347 914.887 717.318C914.887 720.289 917.22 722.698 920.099 722.698Z" fill="#F6A915"/>
<path d="M252.071 846.391C254.95 846.391 257.283 843.983 257.283 841.011C257.283 838.04 254.95 835.632 252.071 835.632C249.193 835.632 246.859 838.04 246.859 841.011C246.859 843.983 249.193 846.391 252.071 846.391Z" fill="#F6A915"/>
<path d="M909.286 533.257L894.648 541.98L903.1 557.089L917.738 548.366L909.286 533.257Z" fill="#23B3AB"/>
<path d="M853.181 264.598L844.515 269.763L849.519 278.708L858.185 273.544L853.181 264.598Z" fill="white"/>
<path d="M831.91 388.865L838.968 392.657L835.385 397.681L841.52 401.193L838.498 407.021L844.578 410.084L841.411 415.053" stroke="white" stroke-width="0.8029" stroke-miterlimit="10"/>
<path d="M-16.0605 37.4175L-6.23368 38.8558L-8.42346 46.3088L0.190888 47.7844L-1.02164 55.9285L7.35745 56.9185L5.6382 64.11" stroke="white" stroke-miterlimit="10"/>
<path d="M1245.47 919.445L1350.92 862.661C1350.92 862.661 1368.57 868.077 1376.91 882.591C1385.25 897.105 1384.33 920.734 1390.79 926.45C1403.71 937.863 1431.51 935.565 1437.21 976.491L1338.24 1040C1338.24 1040 1330.13 1025.28 1323.83 1022.05C1313.72 1016.88 1295.85 1013.55 1284.83 999.653C1275.98 988.502 1277.85 962.276 1270.28 945.166C1262.52 927.701 1245.47 919.445 1245.47 919.445Z" fill="#FFF9E1"/>
<path d="M1281.85 930.148C1290.97 926.113 1299.47 920.211 1307.93 914.906C1318.78 908.107 1329.53 901.139 1340.48 894.49C1344.52 892.043 1348.55 889.502 1352.81 887.485C1355.32 886.29 1353.13 882.46 1350.64 883.656C1341.6 887.971 1333.15 893.817 1324.67 899.141C1313.83 905.959 1303.06 912.907 1292.09 919.482C1288.05 921.892 1283.98 924.395 1279.68 926.319C1277.14 927.458 1279.33 931.269 1281.85 930.148Z" fill="#D9C693"/>
<path d="M1288.96 946.679C1298.08 942.645 1306.59 936.742 1315.04 931.437C1325.9 924.638 1336.65 917.671 1347.59 911.021C1351.63 908.574 1355.67 906.033 1359.92 904.016C1362.43 902.821 1360.24 898.991 1357.75 900.187C1348.72 904.502 1340.26 910.348 1331.78 915.672C1320.94 922.49 1310.17 929.438 1299.2 936.013C1295.17 938.423 1291.09 940.926 1286.79 942.85C1284.25 943.971 1286.44 947.8 1288.96 946.679Z" fill="#D9C693"/>
<path d="M1296.07 966.871C1305.19 962.837 1313.7 956.934 1322.15 951.629C1333.01 944.83 1343.76 937.863 1354.71 931.213C1358.74 928.766 1362.78 926.226 1367.03 924.208C1369.55 923.013 1367.36 919.184 1364.86 920.379C1355.83 924.694 1347.38 930.54 1338.89 935.864C1328.05 942.682 1317.28 949.63 1306.31 956.205C1302.28 958.615 1298.21 961.118 1293.9 963.042C1291.38 964.163 1293.56 967.992 1296.07 966.871Z" fill="#D9C693"/>
<path d="M1304.05 988.464C1313.17 984.43 1321.68 978.527 1330.13 973.222C1340.99 966.423 1351.74 959.456 1362.69 952.806C1366.72 950.359 1370.76 947.819 1375.01 945.801C1377.53 944.606 1375.34 940.777 1372.84 941.972C1363.81 946.287 1355.36 952.134 1346.87 957.457C1336.03 964.275 1325.26 971.224 1314.3 977.799C1310.26 980.208 1306.19 982.711 1301.88 984.635C1299.35 985.756 1301.54 989.585 1304.05 988.464Z" fill="#D9C693"/>
<path d="M1323.98 997.711C1333.1 993.676 1341.6 987.773 1350.05 982.468C1360.91 975.669 1371.66 968.702 1382.61 962.052C1386.65 959.605 1390.68 957.065 1394.94 955.047C1397.45 953.852 1395.26 950.023 1392.76 951.218C1383.73 955.533 1375.28 961.38 1366.79 966.703C1355.95 973.521 1345.19 980.47 1334.22 987.045C1330.18 989.454 1326.11 991.957 1321.8 993.881C1319.27 995.002 1321.46 998.831 1323.98 997.711Z" fill="#D9C693"/>
<path d="M1343.9 1010.06C1353.02 1006.02 1361.53 1000.12 1369.98 994.815C1380.84 988.016 1391.59 981.049 1402.54 974.399C1406.58 971.952 1410.61 969.412 1414.86 967.394C1417.38 966.199 1415.19 962.37 1412.69 963.565C1403.66 967.88 1395.21 973.727 1386.72 979.05C1375.88 985.868 1365.11 992.817 1354.15 999.392C1350.11 1001.8 1346.04 1004.3 1341.73 1006.23C1339.2 1007.35 1341.39 1011.18 1343.9 1010.06Z" fill="#D9C693"/>
<path d="M1105.16 868.19C1100.82 866.546 1098 862.735 1099.19 858.121L1100.51 853.078L1111.5 811.592C1111.81 810.434 1112.44 809.406 1113.34 808.622L1120.17 802.757L1121.9 801.262C1122.75 800.534 1124.04 800.889 1124.44 801.953L1125.25 804.176L1128.04 811.779C1128.45 812.899 1128.51 814.113 1128.22 815.272L1117.69 856.907L1116.28 862.586C1115.86 864.267 1115.08 865.873 1113.9 867.106C1112.11 868.974 1109.85 869.59 1105.98 868.451C1105.69 868.376 1105.42 868.302 1105.16 868.19Z" stroke="#CDD0C4" stroke-miterlimit="10"/>
<path d="M1125.25 804.176L1124.44 801.953C1124.04 800.889 1122.75 800.534 1121.9 801.262L1120.17 802.757C1120.17 802.757 1120.4 803.896 1121.97 804.214C1123.53 804.568 1125.25 804.176 1125.25 804.176Z" fill="#CDD0C4"/>
<path d="M1117.67 856.907L1116.2 862.866C1115.77 864.584 1114.9 866.172 1113.63 867.386C1111.88 869.049 1109.65 869.553 1105.96 868.47C1105.69 868.395 1105.42 868.302 1105.16 868.208C1100.82 866.564 1098 862.754 1099.19 858.14L1100.51 853.097C1100.51 853.097 1104.8 851.023 1108.09 851.509C1115.62 852.648 1117.67 856.907 1117.67 856.907Z" stroke="#CDD0C4" stroke-miterlimit="10"/>
<path d="M1101.4 860.793C1103.08 859.392 1110.52 858.532 1113.56 864.454" stroke="#CDD0C4" stroke-miterlimit="10"/>
<path d="M1113.34 812.32L1116.16 813.927L1120.09 813.123L1123.37 815.234L1126.35 814.095" stroke="#CDD0C4" stroke-miterlimit="10"/>
<path d="M1104.02 845.532C1104.02 845.532 1112.8 841.497 1118.9 850.052" stroke="#CDD0C4" stroke-miterlimit="10"/>
<path d="M1116.55 842.935L1123.37 815.234" stroke="#CDD0C4" stroke-miterlimit="10"/>
<path d="M1108.56 844.878L1115.39 817.177" stroke="#CDD0C4" stroke-miterlimit="10"/>
<path d="M944.511 199.646H970.246L978.914 205.38L979.494 199.646C981.701 199.646 983.493 197.796 983.493 195.518V180.201C983.493 177.922 981.701 176.073 979.494 176.073H944.511C942.303 176.073 940.512 177.922 940.512 180.201V195.518C940.512 197.796 942.303 199.646 944.511 199.646Z" stroke="#CDD0C4" stroke-width="1.3631" stroke-miterlimit="10"/>
<path d="M973.63 184.983H949.325" stroke="#CDD0C4" stroke-width="1.3631" stroke-miterlimit="10"/>
<path d="M973.63 191.277H949.325" stroke="#CDD0C4" stroke-width="1.3631" stroke-miterlimit="10"/>
<path d="M533.429 951.031H467.247C462.433 951.031 458.542 947.015 458.542 942.047V903.493C458.542 898.524 462.433 894.508 467.247 894.508H533.429C538.243 894.508 542.134 898.524 542.134 903.493V942.047C542.134 947.015 538.243 951.031 533.429 951.031Z" stroke="#CDD0C4" stroke-width="1.4592" stroke-miterlimit="10"/>
<path d="M469.436 940.721C469.436 940.721 486.32 913.972 488.673 913.972C491.026 913.972 511.458 941.131 511.458 941.131L469.436 940.721Z" fill="#30B47A"/>
<path d="M501.468 922.863L514.606 939.917H530.405V930.186C530.405 930.186 515.584 915.784 511.602 913.15C510.372 914.495 501.468 923.629 501.468 922.863Z" fill="#30B47A"/>
<path d="M478.123 913.019C480.562 913.019 482.539 910.979 482.539 908.462C482.539 905.945 480.562 903.904 478.123 903.904C475.684 903.904 473.707 905.945 473.707 908.462C473.707 910.979 475.684 913.019 478.123 913.019Z" fill="#F6A915"/>
<g opacity="0.15">
<path opacity="0.15" d="M91.7087 894.994H18.4506C13.13 894.994 8.80469 890.548 8.80469 885.038V842.375C8.80469 836.883 13.1119 832.419 18.4506 832.419H91.7087C97.0293 832.419 101.355 836.865 101.355 842.375V885.038C101.355 890.548 97.0293 894.994 91.7087 894.994Z" stroke="white" stroke-width="2.2139" stroke-miterlimit="10"/>
<path opacity="0.15" d="M22.8122 883.581C21.9797 883.581 21.473 882.61 21.9254 881.9C25.9249 875.643 39.9323 853.956 42.1763 853.956C44.7824 853.956 67.386 884.029 67.386 884.029L22.8122 883.581Z" stroke="white" stroke-width="2.2139" stroke-miterlimit="10"/>
<path opacity="0.15" d="M53.1973 865.126L67.7475 883.992L87.2203 883.6C87.7994 883.581 88.2519 883.114 88.2519 882.516L88.3604 872.43C88.3604 872.093 88.2338 871.776 87.9804 871.57C85.483 869.497 71.7652 858.122 66.2274 854.031C65.413 853.433 64.3271 853.526 63.6213 854.274C60.5448 857.505 53.1973 865.126 53.1973 865.126Z" stroke="white" stroke-width="2.2139" stroke-miterlimit="10"/>
<path opacity="0.15" d="M30.4859 852.91C33.1845 852.91 35.3722 850.652 35.3722 847.867C35.3722 845.081 33.1845 842.823 30.4859 842.823C27.7873 842.823 25.5996 845.081 25.5996 847.867C25.5996 850.652 27.7873 852.91 30.4859 852.91Z" stroke="white" stroke-width="2.2139" stroke-miterlimit="10"/>
</g>
<path d="M1178.17 623.25C1180.25 623.25 1181.93 621.511 1181.93 619.365C1181.93 617.219 1180.25 615.48 1178.17 615.48C1176.09 615.48 1174.4 617.219 1174.4 619.365C1174.4 621.511 1176.09 623.25 1178.17 623.25Z" stroke="#221660" stroke-miterlimit="10"/>
<path d="M953.417 235.715C955.495 235.715 957.181 233.975 957.181 231.83C957.181 229.684 955.495 227.944 953.417 227.944C951.338 227.944 949.652 229.684 949.652 231.83C949.652 233.975 951.338 235.715 953.417 235.715Z" stroke="#221660" stroke-miterlimit="10"/>
<path d="M15.0859 768.406L21.2933 786.693" stroke="white" stroke-miterlimit="10"/>
<path d="M10.2539 781.481L26.3787 774.514" stroke="white" stroke-miterlimit="10"/>
<path d="M566.548 89.196L572.737 107.502" stroke="white" stroke-miterlimit="10"/>
<path d="M561.698 102.271L577.841 95.3041" stroke="white" stroke-miterlimit="10"/>
<path d="M695.293 672.899L701.5 691.205" stroke="white" stroke-miterlimit="10"/>
<path d="M690.443 685.975L706.586 679.008" stroke="white" stroke-miterlimit="10"/>
<path d="M1374.23 214.047L1380.44 232.334" stroke="#F6A915" stroke-miterlimit="10"/>
<path d="M1369.4 227.123L1385.53 220.155" stroke="#F6A915" stroke-miterlimit="10"/>
<path d="M1263.5 818.223L1269.7 836.51" stroke="#F6A915" stroke-miterlimit="10"/>
<path d="M1258.65 831.298L1274.79 824.331" stroke="#F6A915" stroke-miterlimit="10"/>
<path d="M585.605 821.118L591.813 839.424" stroke="#23B3AB" stroke-miterlimit="10"/>
<path d="M580.756 834.194L596.899 827.226" stroke="#23B3AB" stroke-miterlimit="10"/>
<path d="M1134.01 276.099C1157.19 276.099 1175.98 256.706 1175.98 232.782C1175.98 208.859 1157.19 189.465 1134.01 189.465C1110.83 189.465 1092.04 208.859 1092.04 232.782C1092.04 256.706 1110.83 276.099 1134.01 276.099Z" fill="#F6A915"/>
<path d="M1137.05 270.495C1160.23 270.495 1179.02 251.102 1179.02 227.179C1179.02 203.255 1160.23 183.862 1137.05 183.862C1113.87 183.862 1095.08 203.255 1095.08 227.179C1095.08 251.102 1113.87 270.495 1137.05 270.495Z" stroke="#F67215" stroke-width="1.3979" stroke-miterlimit="10"/>
<path d="M1155.35 225.684C1155.35 233.586 1151.96 240.198 1145.66 243.691C1142.82 245.26 1140.23 257.308 1140.23 257.308L1127.95 257.046C1127.95 257.046 1125.92 244.251 1123.77 242.701C1118.55 238.946 1115.13 232.726 1115.13 225.666C1115.13 214.215 1124.13 204.932 1135.22 204.932C1146.32 204.932 1155.35 214.234 1155.35 225.684Z" stroke="white" stroke-width="1.8593" stroke-miterlimit="10"/>
<path d="M1129.67 242.608L1126.48 223.854L1134.33 228.411L1141.95 223.854L1139 242.608" stroke="white" stroke-width="1.8593" stroke-miterlimit="10"/>
<path d="M1123.79 242.72H1145.67" stroke="white" stroke-width="1.8593" stroke-miterlimit="10"/>
<path d="M1127.46 249.706H1141.95" stroke="white" stroke-width="1.8593" stroke-miterlimit="10"/>
<path d="M1135.93 294.946C1136.8 294.946 1136.8 293.546 1135.93 293.546C1135.04 293.546 1135.04 294.946 1135.93 294.946Z" fill="#221660"/>
<path d="M716.339 917.857C716.593 923.741 714.294 928.803 709.716 931.624C707.653 932.894 706.114 941.972 706.114 941.972L696.939 942.215C696.939 942.215 695.003 932.745 693.356 931.661C689.338 929.046 686.587 924.526 686.352 919.258C685.972 910.722 692.378 903.474 700.649 903.082C708.956 902.709 715.977 909.302 716.339 917.857Z" stroke="#EFDDC9" stroke-width="0.9087" stroke-miterlimit="10"/>
<path d="M696.432 931.325L695.075 917.166L701.102 920.286L706.621 916.624L706.676 931.474" stroke="#EFDDC9" stroke-width="0.9087" stroke-miterlimit="10"/>
<path d="M694.243 932.259L709.101 931.96" stroke="#EFDDC9" stroke-width="0.9087" stroke-miterlimit="10"/>
<path d="M696.343 936.742L707.147 936.238" stroke="#EFDDC9" stroke-width="0.9087" stroke-miterlimit="10"/>
<g opacity="0.14">
<path opacity="0.14" d="M492.441 746.271C502.236 746.271 510.176 738.075 510.176 727.965C510.176 717.856 502.236 709.66 492.441 709.66C482.646 709.66 474.705 717.856 474.705 727.965C474.705 738.075 482.646 746.271 492.441 746.271Z" stroke="white" stroke-width="3.5194" stroke-miterlimit="10"/>
<path opacity="0.14" d="M504.801 743.189L519.514 758.375L504.801 743.189Z" stroke="white" stroke-width="3.5194" stroke-miterlimit="10"/>
</g>
<path opacity="0.14" d="M-25 215.803L-11.6441 229.588L27.8081 188.849" stroke="white" stroke-width="4.6663" stroke-miterlimit="10"/>
<path d="M1270.75 230.036C1274.03 230.036 1276.69 227.293 1276.69 223.91C1276.69 220.526 1274.03 217.783 1270.75 217.783C1267.48 217.783 1264.82 220.526 1264.82 223.91C1264.82 227.293 1267.48 230.036 1270.75 230.036Z" fill="#CDD0C4"/>
</svg>
