<svg width="34" height="33" viewBox="0 0 34 33" fill="none" xmlns="http://www.w3.org/2000/svg">
<path d="M32.3822 10.8693C32.3822 10.8693 30.9925 10.1574 29.5476 10.621C28.4663 10.965 27.2826 11.8533 26.6093 13.6943C25.3109 17.2283 26.435 23.3914 25.9953 23.3914C25.5556 23.3914 24.1715 17.7128 22.32 11.798C20.4671 5.88466 18.8673 -0.257492 15.976 0.23753C13.4124 0.675721 14.2074 7.6793 15.2113 14.2387C16.1211 20.1849 17.1734 25.7513 16.5719 25.7513C15.4975 25.7528 11.9729 9.31841 8.35981 9.94354C4.7467 10.5657 9.40101 28.6751 8.42341 28.7095C7.62004 28.7379 5.64963 17.6874 2.72513 18.1944C0.509973 18.5787 2.48315 27.1766 2.57441 29.5754C2.59653 30.1766 2.76938 31.3057 1.93696 31.3057H0.283203V32.9777H2.99061C3.54648 32.9478 3.98619 32.7175 4.20881 32.1253C4.96102 30.1183 2.98647 21.5937 3.4483 21.5309C3.76633 21.4891 4.45079 24.0838 5.40627 27.0195C6.36036 29.9553 7.3186 32.9942 9.13414 32.9942C13.0473 32.9942 9.05533 16.3624 9.83105 16.3624C10.2417 16.3624 11.3604 19.7423 12.5896 23.4482C14.0954 27.9767 15.9303 33.0002 18.1455 33.0002C20.7893 33.0002 19.9292 26.5125 19.1106 20.2956C18.4013 14.9147 17.5703 9.85979 18.0141 9.85979C19.0111 9.85979 22.7804 32.9912 27.3062 32.9912C29.5739 32.9912 29.5987 28.1561 29.5987 22.9412C29.5987 19.2802 29.3167 15.9421 31.4392 15.139C32.4486 14.7592 33.469 15.4351 33.469 15.4351L32.3822 10.8693Z" fill="white"/>
</svg>
