<svg width="45" height="45" viewBox="0 0 45 45" fill="none" xmlns="http://www.w3.org/2000/svg">
<path d="M18.2521 7.07495L17.1722 7.20338C17.1722 7.20338 12.327 7.72667 8.7886 10.5344H8.74711L8.70287 10.5754C7.90917 11.2968 7.56349 12.1835 7.0173 13.4801C6.37347 15.04 5.82537 16.6369 5.37599 18.262C4.34999 21.9278 3.51758 26.3682 3.51758 30.4301V30.7717L3.69042 31.1133C4.97084 33.3335 7.24407 34.7476 9.35137 35.7245C11.4573 36.7013 13.2784 37.2192 14.5367 37.2615L15.358 37.3039L15.7894 36.5784L17.3021 33.9305C18.9061 34.2885 20.7535 34.529 22.876 34.529C24.9985 34.529 26.8458 34.2885 28.4498 33.9305L29.9625 36.5784L30.3953 37.3039L31.2153 37.2615C32.4736 37.2192 34.2947 36.7013 36.4006 35.7245C38.5079 34.7476 40.7811 33.3335 42.0616 31.1133L42.2344 30.7717V30.4301C42.2344 26.3682 41.402 21.9278 40.376 18.262C39.9266 16.6369 39.3785 15.04 38.7347 13.4801C38.1885 12.1821 37.8428 11.2968 37.0491 10.5767L37.0062 10.533H36.962C33.4263 7.72667 28.5798 7.20338 28.5798 7.20338L27.4999 7.07495L27.1099 8.05731C27.1099 8.05731 26.7103 9.05469 26.4628 10.1928C25.2741 10.0307 24.076 9.94494 22.876 9.93594C22.1362 9.93594 20.8572 9.98376 19.2892 10.1928C19.0403 9.05469 18.6406 8.05731 18.6406 8.05731L18.2521 7.07495ZM16.3508 10.1928C16.4103 10.3841 16.4697 10.5494 16.5237 10.7052C14.7358 11.1424 12.829 11.8091 11.0798 12.8816L12.5483 15.1879C16.1351 12.9882 21.2872 12.6685 22.876 12.6685C24.4634 12.6685 29.6169 12.9882 33.2037 15.1879L34.6722 12.8816C32.923 11.8091 31.0162 11.1424 29.2283 10.7038C29.2822 10.5494 29.3417 10.3841 29.4012 10.1914C30.6913 10.4483 33.1553 11.0358 35.1907 12.6261C35.1796 12.6316 35.7092 13.4213 36.1849 14.5471C36.6716 15.7057 37.2109 17.2483 37.6976 18.9875C38.6323 22.3226 39.3666 26.3846 39.426 29.9601C38.5549 31.2731 36.9413 32.4577 35.2336 33.2488C34.1626 33.7488 33.0296 34.1071 31.8638 34.3145L31.1724 33.1627C31.5831 33.0124 31.9883 32.8484 32.3395 32.6927C34.4675 31.7691 35.6235 30.7717 35.6235 30.7717L33.808 28.7223C33.808 28.7223 33.0309 29.4273 31.2153 30.217C29.4025 31.0067 26.6301 31.7964 22.876 31.7964C19.1218 31.7964 16.3508 31.0067 14.5367 30.217C12.7211 29.4273 11.944 28.7223 11.944 28.7223L10.1285 30.7717C10.1285 30.7717 11.2844 31.7691 13.4125 32.6927C13.7637 32.8484 14.1689 33.0138 14.5795 33.1627L13.8882 34.3158C12.7218 34.1077 11.5883 33.7485 10.517 33.2474C8.81072 32.4577 7.19568 31.2731 6.32731 29.9601C6.38539 26.3846 7.11963 22.3226 8.05574 18.9875C8.46939 17.4789 8.97407 15.9961 9.56708 14.5471C10.0427 13.4213 10.5723 12.6316 10.5613 12.6261C12.5967 11.0358 15.0607 10.4483 16.3508 10.1928ZM18.0364 19.4999C16.9675 19.4999 16.0217 20.1024 15.4437 20.8662C14.8658 21.6299 14.5795 22.5686 14.5795 23.5987C14.5795 24.6289 14.8658 25.5675 15.4437 26.3313C16.0217 27.095 16.9675 27.6976 18.0364 27.6976C19.1052 27.6976 20.051 27.095 20.629 26.3313C21.207 25.5675 21.4932 24.6289 21.4932 23.5987C21.4932 22.5686 21.207 21.6299 20.629 20.8662C20.051 20.1024 19.1052 19.4999 18.0364 19.4999ZM27.7156 19.4999C26.6467 19.4999 25.7009 20.1024 25.1229 20.8662C24.545 21.6299 24.2587 22.5686 24.2587 23.5987C24.2587 24.6289 24.545 25.5675 25.1229 26.3313C25.7009 27.095 26.6467 27.6976 27.7156 27.6976C28.7845 27.6976 29.7302 27.095 30.3082 26.3313C30.8862 25.5675 31.1724 24.6289 31.1724 23.5987C31.1724 22.5686 30.8862 21.6299 30.3082 20.8662C29.7302 20.1024 28.7845 19.4999 27.7156 19.4999ZM18.0364 22.2325C18.1124 22.2325 18.2092 22.2598 18.3821 22.4893C18.5549 22.7175 18.7278 23.1178 18.7278 23.5987C18.7278 24.0797 18.5549 24.48 18.3821 24.7095C18.2092 24.9377 18.1124 24.965 18.0364 24.965C17.9603 24.965 17.8635 24.9377 17.6907 24.7081C17.462 24.3826 17.3412 23.995 17.345 23.5987C17.345 23.1178 17.5179 22.7175 17.6907 22.4879C17.8635 22.2598 17.9603 22.2325 18.0364 22.2325ZM27.7156 22.2325C27.7916 22.2325 27.8884 22.2598 28.0613 22.4893C28.2341 22.7175 28.407 23.1178 28.407 23.5987C28.407 24.0797 28.2341 24.48 28.0613 24.7095C27.8884 24.9377 27.7916 24.965 27.7156 24.965C27.6395 24.965 27.5427 24.9377 27.3699 24.7081C27.1412 24.3826 27.0204 23.995 27.0242 23.5987C27.0242 23.1178 27.1971 22.7175 27.3699 22.4879C27.5427 22.2598 27.6395 22.2325 27.7156 22.2325Z" fill="white"/>
</svg>
