<svg width="34" height="33" viewBox="0 0 34 33" fill="none" xmlns="http://www.w3.org/2000/svg">
<g clip-path="url(#clip0)">
<path fill-rule="evenodd" clip-rule="evenodd" d="M17.1242 2.32034C8.75166 2.32034 1.97345 8.98368 1.97345 17.1896C1.97345 23.2148 5.62804 28.3999 10.888 30.7321C11.4383 30.9767 11.9762 30.8797 12.3966 30.5682C12.629 30.3893 12.8164 30.1597 12.9441 29.8972C13.0717 29.6348 13.1361 29.3468 13.1322 29.0557V28.2769L11.2558 28.0255C11.2419 28.0237 11.2281 28.0214 11.2143 28.0187C10.18 27.8192 9.48175 27.4599 8.97013 26.9421C8.5401 26.5062 8.27738 25.9843 8.05476 25.5416L7.97732 25.3872C7.77156 24.9632 7.54688 24.5483 7.30393 24.1439C7.11726 23.8515 6.97207 23.7012 6.82826 23.607C6.46322 23.3679 6.112 22.9621 6.112 22.4552C6.11075 22.3093 6.14237 22.165 6.20455 22.0326C6.26673 21.9003 6.35792 21.7833 6.47152 21.6901C6.68592 21.5224 6.95312 21.4343 7.22649 21.4414C7.53346 21.4414 7.82246 21.5343 8.06305 21.6409C8.30918 21.7502 8.55393 21.895 8.78208 22.0453C9.33794 22.4115 9.88551 22.8446 10.3487 23.3788C10.8313 23.9335 11.1728 24.286 11.6872 24.3584C12.1103 24.4185 12.5418 24.4199 12.8778 24.4049C12.9245 24.142 13.0015 23.8853 13.1073 23.6398C12.6969 23.5451 12.2921 23.4284 11.8946 23.29C10.9903 22.973 9.9823 22.4798 9.30476 21.7324C8.56084 20.9099 8.10039 20.1762 7.8432 19.3182C7.59292 18.4821 7.55144 17.5762 7.55144 16.4613C7.55144 14.7535 8.2995 13.3148 8.8609 12.551C8.64521 11.8824 8.49019 11.1961 8.39768 10.5003C8.33641 10.0614 8.33687 9.61638 8.39906 9.1777C8.4682 8.77738 8.64104 8.28551 9.09596 7.98903C9.53429 7.70075 10.0487 7.71304 10.4497 7.78682C10.8659 7.8647 11.2987 8.03549 11.6969 8.23086C12.3454 8.54784 12.9898 8.97139 13.4723 9.33072C14.3048 9.08889 15.7774 8.77738 17.109 8.74868H17.1394C18.4723 8.77738 19.8786 9.08889 20.6903 9.32935C21.1742 8.97139 21.8172 8.54647 22.4643 8.23086C22.8626 8.03549 23.294 7.8647 23.7116 7.78682C24.1126 7.71304 24.6269 7.70075 25.0666 7.98767C25.5202 8.28551 25.6944 8.77738 25.7622 9.1777C25.8327 9.59441 25.8161 10.0603 25.7622 10.5003C25.6701 11.196 25.5155 11.8823 25.3003 12.551C25.8617 13.3162 26.6098 14.7548 26.6098 16.4613C26.6098 17.5762 26.5683 18.4821 26.3194 19.3169C26.0608 20.1776 25.6004 20.9099 24.8565 21.7324C24.1789 22.4798 23.1709 22.973 22.2666 23.29C21.7866 23.4567 21.296 23.5923 20.7981 23.6958C20.9682 24.204 21.029 24.6153 21.029 24.8517V29.0735C21.029 29.7156 21.3319 30.2635 21.7619 30.5832C22.1795 30.8961 22.716 30.9931 23.2663 30.7553C28.576 28.4436 32.2735 23.2449 32.2735 17.1882C32.2735 8.98368 25.4981 2.32034 17.1242 2.32034ZM13.6341 25.7725C13.2746 25.8231 13.6327 25.7725 13.6327 25.7725H13.6286L13.6175 25.7753L13.5774 25.7807C13.3721 25.8046 13.1659 25.8214 12.9593 25.8313C12.5694 25.849 12.0343 25.8504 11.4853 25.7725C10.3916 25.6195 9.72649 24.8544 9.29646 24.3571L9.25498 24.3106C9.11438 24.1494 8.96334 23.9975 8.80282 23.8556C8.94524 24.1152 9.0932 24.4049 9.25221 24.7164L9.26604 24.7437L9.33656 24.8858C9.57854 25.3613 9.73756 25.6782 10.0017 25.9433C10.2588 26.2029 10.6598 26.4543 11.4701 26.6128L13.9508 26.9448C14.124 26.968 14.2829 27.0525 14.3978 27.1826C14.5128 27.3128 14.576 27.4798 14.5758 27.6525V29.0557C14.5758 30.1487 14.0572 31.1229 13.2622 31.7131C12.8447 32.0283 12.3481 32.2249 11.826 32.2817C11.3038 32.3385 10.7758 32.2534 10.2989 32.0355C4.54397 29.4847 0.53125 23.8051 0.53125 17.1896C0.53125 8.18304 7.96626 0.892578 17.1242 0.892578C26.2821 0.892578 33.7171 8.18304 33.7171 17.1896C33.7171 23.8392 29.6532 29.5339 23.8485 32.0629C23.3712 32.2766 22.8442 32.3581 22.3237 32.2986C21.8032 32.2392 21.3088 32.041 20.8935 31.7254C20.4829 31.413 20.1511 31.0109 19.9241 30.5505C19.6972 30.0902 19.5812 29.5841 19.5855 29.0721V24.8503C19.5855 24.7546 19.5177 24.2027 19.1402 23.4608C19.0881 23.3579 19.0619 23.2441 19.0637 23.1291C19.0655 23.0141 19.0954 22.9012 19.1507 22.8C19.2061 22.6988 19.2853 22.6123 19.3817 22.5477C19.478 22.4832 19.5887 22.4425 19.7044 22.4292C20.1786 22.3773 20.9779 22.2257 21.784 21.9428C22.6054 21.6559 23.3424 21.2624 23.7807 20.7788C24.432 20.0601 24.7569 19.5081 24.9353 18.9111C25.1206 18.2921 25.1676 17.5721 25.1676 16.4613C25.1676 14.9024 24.3379 13.5921 23.9563 13.17C23.8697 13.0746 23.8106 12.9579 23.7853 12.8322C23.76 12.7064 23.7694 12.5763 23.8125 12.4554C24.0061 11.9171 24.2411 11.0796 24.331 10.3322C24.3753 9.95647 24.378 9.64223 24.3393 9.41543C24.3307 9.3325 24.3053 9.25214 24.2647 9.17906C24.1695 9.16278 24.0718 9.16698 23.9784 9.19136C23.7434 9.23508 23.4433 9.34438 23.1032 9.51107C22.4256 9.84171 21.7204 10.3308 21.2835 10.6806C21.1871 10.7578 21.0722 10.8091 20.9498 10.8295C20.8274 10.8498 20.7018 10.8386 20.5852 10.7967C19.4656 10.4349 18.3011 10.2266 17.1242 10.1778C15.7317 10.2106 14.125 10.6014 13.5761 10.7967C13.4594 10.8386 13.3338 10.8498 13.2114 10.8295C13.0891 10.8091 12.9741 10.7578 12.8778 10.6806C12.3127 10.2311 11.703 9.83925 11.0581 9.51107C10.7811 9.36737 10.4864 9.25989 10.1814 9.19136C10.0885 9.16718 9.99132 9.16298 9.89657 9.17906C9.85593 9.25212 9.83054 9.3325 9.8219 9.41543C9.78319 9.64223 9.78595 9.95647 9.8302 10.3322C9.92008 11.0796 10.1565 11.9171 10.3487 12.4554C10.4358 12.7013 10.3819 12.9746 10.2049 13.17C9.82329 13.5921 8.99364 14.9024 8.99364 16.4613C8.99364 17.5707 9.04065 18.2921 9.22594 18.9111C9.4057 19.5081 9.72926 20.0587 10.3791 20.7788C10.8189 21.2624 11.5545 21.6559 12.3772 21.9428C13.0503 22.1782 13.7471 22.3413 14.4555 22.4292C14.6012 22.4447 14.7388 22.5036 14.8498 22.5982C14.9608 22.6928 15.04 22.8185 15.077 22.9587C15.1139 23.0989 15.1068 23.2468 15.0565 23.3829C15.0062 23.5189 14.9153 23.6367 14.7956 23.7204C14.5675 23.8816 14.4168 24.1712 14.3324 24.506C14.2889 24.6783 14.2629 24.8545 14.255 25.032V25.058C14.2567 25.2312 14.1948 25.3992 14.0805 25.5306C13.9663 25.662 13.8077 25.748 13.6341 25.7725Z" fill="white"/>
</g>
<defs>
<clipPath id="clip0">
<rect width="33.1858" height="32.7907" fill="white" transform="translate(0.53125 0.209473)"/>
</clipPath>
</defs>
</svg>
