<svg width="34" height="34" viewBox="0 0 34 34" fill="none" xmlns="http://www.w3.org/2000/svg">
<path d="M17.1242 9.16466C15.5837 9.16466 14.0779 9.61601 12.7971 10.4616C11.5163 11.3073 10.518 12.5092 9.92852 13.9154C9.33903 15.3216 9.18479 16.869 9.48531 18.3618C9.78583 19.8546 10.5276 21.2259 11.6169 22.3022C12.7061 23.3784 14.0939 24.1114 15.6047 24.4083C17.1155 24.7053 18.6815 24.5529 20.1047 23.9704C21.5279 23.3879 22.7443 22.4015 23.6001 21.136C24.4559 19.8704 24.9127 18.3825 24.9127 16.8604C24.9104 14.8201 24.089 12.864 22.6289 11.4212C21.1688 9.97851 19.1891 9.16696 17.1242 9.16466ZM17.1242 22.5486C15.9856 22.5486 14.8726 22.215 13.9259 21.59C12.9792 20.965 12.2414 20.0766 11.8056 19.0372C11.3699 17.9978 11.2559 16.8541 11.4781 15.7507C11.7002 14.6473 12.2485 13.6338 13.0535 12.8383C13.8586 12.0428 14.8844 11.501 16.0011 11.2816C17.1178 11.0621 18.2753 11.1747 19.3272 11.6052C20.3791 12.0358 21.2782 12.7648 21.9107 13.7003C22.5433 14.6357 22.8809 15.7354 22.8809 16.8604C22.8792 18.3685 22.2721 19.8143 21.1929 20.8807C20.1136 21.947 18.6504 22.5469 17.1242 22.5486ZM24.5741 0.465088H9.67429C7.25026 0.467833 4.9263 1.42053 3.21225 3.11417C1.4982 4.80781 0.534028 7.10409 0.53125 9.49926V24.2216C0.534028 26.6168 1.4982 28.9131 3.21225 30.6067C4.9263 32.3003 7.25026 33.253 9.67429 33.2558H24.5741C26.9981 33.253 29.322 32.3003 31.0361 30.6067C32.7501 28.9131 33.7143 26.6168 33.7171 24.2216V9.49926C33.7143 7.10409 32.7501 4.80781 31.0361 3.11417C29.322 1.42053 26.9981 0.467833 24.5741 0.465088ZM31.6853 24.2216C31.6832 26.0845 30.9333 27.8706 29.6001 29.1879C28.267 30.5051 26.4594 31.2461 24.5741 31.2482H9.67429C7.78891 31.2461 5.98136 30.5051 4.6482 29.1879C3.31504 27.8706 2.56514 26.0845 2.56304 24.2216V9.49926C2.56514 7.63633 3.31504 5.85031 4.6482 4.53302C5.98136 3.21573 7.78891 2.47476 9.67429 2.47268H24.5741C26.4594 2.47476 28.267 3.21573 29.6001 4.53302C30.9333 5.85031 31.6832 7.63633 31.6853 9.49926V24.2216ZM27.6217 8.16086C27.6217 8.49175 27.5224 8.81521 27.3364 9.09033C27.1503 9.36545 26.8859 9.57988 26.5765 9.70651C26.2671 9.83313 25.9267 9.86627 25.5983 9.80171C25.2698 9.73716 24.9681 9.57782 24.7313 9.34385C24.4945 9.10988 24.3333 8.81178 24.268 8.48725C24.2026 8.16272 24.2362 7.82634 24.3643 7.52064C24.4925 7.21494 24.7095 6.95365 24.9879 6.76982C25.2663 6.58599 25.5937 6.48787 25.9286 6.48787C26.3775 6.4884 26.8078 6.66483 27.1252 6.97847C27.4426 7.2921 27.6212 7.71732 27.6217 8.16086Z" fill="white"/>
</svg>
