<svg width="45" height="44" viewBox="0 0 45 44" fill="none" xmlns="http://www.w3.org/2000/svg">
<path d="M23.6133 35.7052C27.5251 35.7052 31.2766 34.1698 34.0426 31.4367C36.8087 28.7036 38.3626 24.9968 38.3626 21.1316C38.3626 17.2664 36.8087 13.5596 34.0426 10.8265C31.2766 8.09339 27.5251 6.55796 23.6133 6.55796C19.7016 6.55796 15.9501 8.09339 13.184 10.8265C10.418 13.5596 8.86407 17.2664 8.86407 21.1316C8.86407 24.9968 10.418 28.7036 13.184 31.4367C15.9501 34.1698 19.7016 35.7052 23.6133 35.7052ZM23.6133 39.3487C13.4308 39.3487 5.17676 31.1929 5.17676 21.1316C5.17676 11.0703 13.4308 2.91455 23.6133 2.91455C33.7959 2.91455 42.0499 11.0703 42.0499 21.1316C42.0499 31.1929 33.7959 39.3487 23.6133 39.3487Z" fill="white"/>
<path d="M32.4639 22.3321V29.0669H28.513V22.782C28.513 21.2044 27.9414 20.1278 26.5107 20.1278C25.4193 20.1278 24.7685 20.8528 24.4827 21.556C24.3795 21.8074 24.3518 22.1572 24.3518 22.5069V29.0669H20.399C20.399 29.0669 20.4525 18.4245 20.399 17.3224H24.3518V18.9856L24.326 19.0238H24.3518V18.9874C24.8773 18.1859 25.8138 17.0455 27.9138 17.0455C30.5133 17.0455 32.4639 18.7251 32.4639 22.3321ZM16.2637 11.6587C14.9123 11.6587 14.0273 12.5368 14.0273 13.6881C14.0273 14.8175 14.8865 15.7193 16.2121 15.7193H16.2379C17.6169 15.7193 18.4742 14.8157 18.4742 13.6881C18.4484 12.5368 17.6169 11.6587 16.2637 11.6587ZM14.2615 29.0669H18.2143V17.3224H14.2615V29.0669Z" fill="white"/>
</svg>
