<svg width="35" height="35" viewBox="0 0 35 35" fill="none" xmlns="http://www.w3.org/2000/svg">
<path d="M17.4927 0C7.84729 0 0 7.84875 0 17.4942C0 27.1483 7.84729 35 17.4927 35C27.1469 35 35 27.1469 35 17.4942C35 7.84875 27.1469 0 17.4927 0ZM8.61583 23.9225C10.6187 23.3089 12.7015 22.9954 14.7963 22.9921C18.3167 22.9921 21.7919 23.8846 24.8471 25.5733C25.0294 25.6725 25.1942 25.9992 25.27 26.4075C25.3429 26.8158 25.3137 27.2344 25.1942 27.4517C25.1378 27.555 25.0615 27.6462 24.9697 27.7198C24.8778 27.7935 24.7723 27.8482 24.6591 27.8807C24.546 27.9133 24.4275 27.923 24.3106 27.9095C24.1937 27.8959 24.0806 27.8593 23.9779 27.8017C21.7338 26.5706 19.2654 25.8028 16.7189 25.5437C14.1725 25.2847 11.6 25.5398 9.15396 26.2938C9.04167 26.3301 8.92328 26.3437 8.80568 26.3338C8.68808 26.3239 8.57363 26.2907 8.46899 26.2361C8.36434 26.1816 8.2716 26.1067 8.19616 26.016C8.12073 25.9252 8.0641 25.8204 8.02958 25.7075C7.87354 25.1971 8.19583 24.0596 8.61583 23.9225ZM7.85313 17.4767C10.1158 16.862 12.4501 16.5506 14.7948 16.5506C19.0152 16.5506 23.205 17.5715 26.9135 19.5052C27.1746 19.6365 27.3656 19.861 27.4531 20.1352C27.4974 20.2737 27.5134 20.4196 27.5004 20.5643C27.4874 20.7091 27.4455 20.8498 27.3773 20.9781C27.0463 21.6256 26.6583 22.0617 26.4148 22.0617C26.2371 22.0609 26.0622 22.0179 25.9044 21.9363C22.4761 20.1464 18.6636 19.2184 14.7963 19.2325C12.6451 19.2282 10.5033 19.5152 8.42917 20.0856C8.2908 20.1235 8.14634 20.1337 8.00403 20.1156C7.86172 20.0976 7.72435 20.0518 7.59977 19.9807C7.47518 19.9096 7.36582 19.8147 7.27792 19.7013C7.19003 19.5879 7.12532 19.4584 7.0875 19.32C6.92417 18.7046 7.29896 17.6283 7.85313 17.4767V17.4767ZM7.65625 13.2679C7.49211 13.31 7.32124 13.3192 7.15352 13.295C6.9858 13.2707 6.82455 13.2135 6.67907 13.1266C6.53358 13.0397 6.40676 12.9248 6.3059 12.7886C6.20505 12.6524 6.13216 12.4976 6.09146 12.3331C5.91208 11.6069 6.36563 10.764 7.02479 10.5977C9.56741 9.97145 12.1762 9.65368 14.7948 9.65125C19.826 9.65125 24.6473 10.7829 29.1215 13.0156C29.4289 13.1685 29.663 13.4372 29.7724 13.7626C29.8818 14.088 29.8575 14.4435 29.7048 14.751C29.4963 15.171 29.0442 15.6231 28.5454 15.6231C28.3498 15.6224 28.1568 15.5791 27.9796 15.4963C23.8883 13.4438 19.372 12.3818 14.7948 12.3958C12.4104 12.3958 10.0085 12.689 7.65625 13.2679V13.2679Z" fill="white"/>
</svg>
