<svg width="45" height="45" viewBox="0 0 45 45" fill="none" xmlns="http://www.w3.org/2000/svg">
<path d="M28.6067 21.4823L20.3102 16.0172C20.102 15.88 19.8599 15.8013 19.6099 15.7893C19.36 15.7774 19.1114 15.8327 18.8907 15.9494C18.67 16.066 18.4855 16.2397 18.3569 16.4519C18.2283 16.664 18.1604 16.9067 18.1604 17.154V28.0842C18.1604 28.3315 18.2283 28.5742 18.3569 28.7863C18.4855 28.9985 18.67 29.1721 18.8907 29.2888C19.1114 29.4055 19.36 29.4608 19.6099 29.4489C19.8599 29.4369 20.102 29.3581 20.3102 29.221L28.6067 23.7558C28.796 23.6311 28.9513 23.462 29.0587 23.2637C29.1661 23.0654 29.2223 22.844 29.2223 22.6191C29.2223 22.3942 29.1661 22.1728 29.0587 21.9745C28.9513 21.7762 28.796 21.6071 28.6067 21.4823ZM20.9259 25.5313V19.7069L25.3468 22.6191L20.9259 25.5313ZM40.687 12.6789C40.523 12.0505 40.2102 11.4697 39.7743 10.9843C39.3384 10.4989 38.792 10.1229 38.1801 9.88725C32.2567 7.63801 22.8237 7.65509 22.3086 7.6597C21.7937 7.65492 12.3605 7.63818 6.4373 9.88725C5.82534 10.1229 5.27884 10.4989 4.8429 10.9843C4.40696 11.4697 4.09407 12.0505 3.93004 12.6789C3.48307 14.3748 2.9502 17.4762 2.9502 22.6191C2.9502 27.7621 3.48307 30.8632 3.93021 32.5593C4.09418 33.1877 4.40701 33.7685 4.84289 34.2539C5.27877 34.7393 5.82521 35.1153 6.43713 35.3509C12.1074 37.504 20.9943 37.5788 22.1947 37.5788H22.4225C23.6238 37.5788 32.51 37.5037 38.1799 35.3509C38.7919 35.1153 39.3384 34.7393 39.7743 34.2539C40.2103 33.7685 40.5231 33.1877 40.6872 32.5593C41.1341 30.8634 41.667 27.7619 41.667 22.6191C41.667 17.4759 41.1341 14.3748 40.687 12.6789ZM38.011 31.8705C37.9583 32.0788 37.8561 32.2717 37.713 32.4334C37.57 32.595 37.39 32.7207 37.1881 32.8001C31.717 34.8775 22.4106 34.847 22.3174 34.8461H22.3001C22.2068 34.849 12.9085 34.8806 7.42942 32.8001C7.22751 32.7207 7.0476 32.595 6.90452 32.4334C6.76144 32.2717 6.6593 32.0788 6.60651 31.8705C6.20016 30.3292 5.71568 27.4728 5.71568 22.6191C5.71568 17.7654 6.19999 14.909 6.60634 13.3677C6.65913 13.1594 6.76127 12.9665 6.90435 12.8048C7.04742 12.6432 7.22734 12.5175 7.42925 12.4381C12.7051 10.4348 21.5469 10.3921 22.2706 10.3921H22.3172C22.4106 10.3895 31.717 10.3607 37.188 12.4381C37.3899 12.5175 37.5698 12.6432 37.7129 12.8048C37.856 12.9664 37.9581 13.1594 38.0109 13.3677C38.417 14.909 38.9015 17.7654 38.9015 22.6191C38.9015 27.4728 38.4172 30.3292 38.0109 31.8705H38.011Z" fill="white"/>
</svg>
