<svg width="60" height="60" viewBox="0 0 60 60" fill="none" xmlns="http://www.w3.org/2000/svg">
<ellipse cx="29.6292" cy="30.2539" rx="29.6292" ry="29.517" fill="white"/>
<path d="M19.3442 43.2917L17.0566 16.1719H42.2014L39.9108 43.2874L29.6138 46.3038L19.3442 43.2917Z" fill="#1572B6"/>
<path d="M29.6289 43.9987L37.9501 41.5612L39.9076 18.3898H29.6289V43.9987Z" fill="#33A9DC"/>
<path d="M29.6289 28.2149H33.7946L34.0818 24.8089H29.6289V21.4825H37.5223L37.4469 22.3747L36.6739 31.5412H29.6289V28.2149Z" fill="white"/>
<path d="M29.6486 36.853L29.6343 36.8574L26.1286 35.8565L25.9046 33.2039H22.7441L23.1852 38.4264L29.6333 40.3182L29.6486 40.3139V36.853Z" fill="#EBEBEB"/>
<path d="M33.5274 31.4003L33.1485 35.8544L29.6377 36.8552V40.3161L36.0909 38.4264L36.1388 37.8646L36.6857 31.4003H33.5274Z" fill="white"/>
<path d="M29.6402 21.4825V24.8089H22.036L21.9729 24.061L21.8293 22.3747L21.7539 21.4825H29.6402Z" fill="#EBEBEB"/>
<path d="M29.6297 28.2148V31.5412H26.1678L26.1047 30.7933L25.9621 29.107L25.8867 28.2148H29.6297Z" fill="#EBEBEB"/>
</svg>
