<svg width="60" height="60" viewBox="0 0 60 60" fill="none" xmlns="http://www.w3.org/2000/svg">
<ellipse cx="29.6292" cy="29.517" rx="29.6292" ry="29.517" fill="white"/>
<path d="M10.1279 36V21.0703H14.937C16.2563 21.0703 17.4424 21.3711 18.4951 21.9727C19.5479 22.5674 20.3682 23.4116 20.9561 24.5054C21.5508 25.5923 21.8516 26.8125 21.8584 28.166V28.853C21.8584 30.2202 21.5679 31.4473 20.9868 32.5342C20.4126 33.6143 19.5991 34.4619 18.5464 35.0771C17.5005 35.6855 16.3315 35.9932 15.0396 36H10.1279ZM13.7271 23.8491V33.2314H14.978C16.0103 33.2314 16.8032 32.8657 17.3569 32.1343C17.9106 31.396 18.1875 30.3022 18.1875 28.853V28.207C18.1875 26.7646 17.9106 25.6777 17.3569 24.9463C16.8032 24.2148 15.9966 23.8491 14.937 23.8491H13.7271ZM31.4048 32.0317C31.4048 31.5054 31.2168 31.0952 30.8408 30.8013C30.4717 30.5073 29.8188 30.2031 28.8823 29.8887C27.9458 29.5742 27.1802 29.27 26.5854 28.9761C24.6509 28.0259 23.6836 26.7202 23.6836 25.0591C23.6836 24.2319 23.9229 23.5039 24.4014 22.875C24.8867 22.2393 25.5703 21.7471 26.4521 21.3984C27.334 21.043 28.3252 20.8652 29.4258 20.8652C30.499 20.8652 31.4595 21.0566 32.3071 21.4395C33.1616 21.8223 33.8247 22.3691 34.2964 23.0801C34.7681 23.7842 35.0039 24.5908 35.0039 25.5H31.415C31.415 24.8916 31.2271 24.4199 30.8511 24.085C30.4819 23.75 29.9795 23.5825 29.3438 23.5825C28.7012 23.5825 28.1919 23.7261 27.8159 24.0132C27.4468 24.2935 27.2622 24.6523 27.2622 25.0898C27.2622 25.4727 27.4673 25.8213 27.8774 26.1357C28.2876 26.4434 29.0088 26.7646 30.041 27.0996C31.0732 27.4277 31.9209 27.7832 32.584 28.166C34.1973 29.0957 35.0039 30.3774 35.0039 32.0112C35.0039 33.3169 34.5117 34.3423 33.5273 35.0874C32.543 35.8325 31.1929 36.2051 29.4771 36.2051C28.2671 36.2051 27.1699 35.9897 26.1855 35.5591C25.208 35.1216 24.4697 34.5269 23.9707 33.7749C23.4785 33.0161 23.2324 32.1445 23.2324 31.1602H26.8418C26.8418 31.96 27.0469 32.5513 27.457 32.9341C27.874 33.3101 28.5474 33.498 29.4771 33.498C30.0718 33.498 30.54 33.3716 30.8818 33.1187C31.2305 32.8589 31.4048 32.4966 31.4048 32.0317ZM45.3296 33.2109H40.3975L39.5361 36H35.6909L41.1665 21.0703H44.5503L50.0669 36H46.2012L45.3296 33.2109ZM41.2588 30.4321H44.4683L42.8584 25.2539L41.2588 30.4321Z" fill="#099706"/>
<path d="M10.1279 36H9.12793V37H10.1279V36ZM10.1279 21.0703V20.0703H9.12793V21.0703H10.1279ZM18.4951 21.9727L17.999 22.8409L18.0032 22.8433L18.4951 21.9727ZM20.9561 24.5054L20.0752 24.9788L20.0788 24.9854L20.9561 24.5054ZM21.8584 28.166H22.8584L22.8584 28.161L21.8584 28.166ZM20.9868 32.5342L20.1049 32.0627L20.1038 32.0648L20.9868 32.5342ZM18.5464 35.0771L19.0492 35.9415L19.051 35.9405L18.5464 35.0771ZM15.0396 36L15.0396 37L15.0448 37L15.0396 36ZM13.7271 23.8491V22.8491H12.7271V23.8491H13.7271ZM13.7271 33.2314H12.7271V34.2314H13.7271V33.2314ZM17.3569 32.1343L18.1543 32.7379L18.1569 32.7343L17.3569 32.1343ZM11.1279 36V21.0703H9.12793V36H11.1279ZM10.1279 22.0703H14.937V20.0703H10.1279V22.0703ZM14.937 22.0703C16.0981 22.0703 17.1105 22.3332 17.999 22.8409L18.9913 21.1044C17.7743 20.409 16.4146 20.0703 14.937 20.0703V22.0703ZM18.0032 22.8433C18.8868 23.3425 19.5743 24.0468 20.0752 24.9788L21.8369 24.0319C21.162 22.7764 20.2089 21.7923 18.987 21.102L18.0032 22.8433ZM20.0788 24.9854C20.5866 25.9134 20.8523 26.9679 20.8584 28.1711L22.8584 28.161C22.8508 26.6571 22.515 25.2711 21.8333 24.0254L20.0788 24.9854ZM20.8584 28.166V28.853H22.8584V28.166H20.8584ZM20.8584 28.853C20.8584 30.074 20.6002 31.1362 20.1049 32.0627L21.8687 33.0056C22.5355 31.7583 22.8584 30.3664 22.8584 28.853H20.8584ZM20.1038 32.0648C19.6165 32.9815 18.9338 33.6925 18.0418 34.2138L19.051 35.9405C20.2645 35.2313 21.2087 34.247 21.8698 33.0036L20.1038 32.0648ZM18.0436 34.2128C17.1591 34.7273 16.1637 34.994 15.0343 35L15.0448 37C16.4994 36.9923 17.8419 36.6438 19.0492 35.9415L18.0436 34.2128ZM15.0396 35H10.1279V37H15.0396V35ZM12.7271 23.8491V33.2314H14.7271V23.8491H12.7271ZM13.7271 34.2314H14.978V32.2314H13.7271V34.2314ZM14.978 34.2314C16.2786 34.2314 17.386 33.7527 18.1542 32.7378L16.5596 31.5307C16.2205 31.9787 15.7419 32.2314 14.978 32.2314V34.2314ZM18.1569 32.7343C18.8958 31.7491 19.1875 30.4035 19.1875 28.853H17.1875C17.1875 30.201 16.9255 31.0428 16.5569 31.5343L18.1569 32.7343ZM19.1875 28.853V28.207H17.1875V28.853H19.1875ZM19.1875 28.207C19.1875 26.6632 18.8957 25.3222 18.1542 24.3427L16.5596 25.5499C16.9256 26.0333 17.1875 26.8661 17.1875 28.207H19.1875ZM18.1542 24.3427C17.3805 23.3207 16.2546 22.8491 14.937 22.8491V24.8491C15.7385 24.8491 16.2259 25.109 16.5596 25.5499L18.1542 24.3427ZM14.937 22.8491H13.7271V24.8491H14.937V22.8491ZM30.8408 30.8013L30.2179 31.5836L30.2249 31.5891L30.8408 30.8013ZM26.5854 28.9761L27.0285 28.0796L27.0263 28.0785L26.5854 28.9761ZM24.4014 22.875L23.6065 22.2682L23.6055 22.2695L24.4014 22.875ZM26.4521 21.3984L26.8198 22.3284L26.826 22.3259L26.4521 21.3984ZM32.3071 21.4395L31.8955 22.3508L31.8983 22.3521L32.3071 21.4395ZM34.2964 23.0801L33.4631 23.6329L33.4656 23.6366L34.2964 23.0801ZM35.0039 25.5V26.5H36.0039V25.5H35.0039ZM31.415 25.5H30.415V26.5H31.415V25.5ZM30.8511 24.085L30.1791 24.8256L30.1859 24.8316L30.8511 24.085ZM27.8159 24.0132L28.4206 24.8096L28.4228 24.808L27.8159 24.0132ZM27.8774 26.1357L27.269 26.9294L27.2774 26.9357L27.8774 26.1357ZM30.041 27.0996L29.7324 28.0508L29.7381 28.0526L30.041 27.0996ZM32.584 28.166L32.084 29.0321L32.0847 29.0324L32.584 28.166ZM26.1855 35.5591L25.777 36.4719L25.7847 36.4752L26.1855 35.5591ZM23.9707 33.7749L23.1317 34.3191L23.1375 34.3279L23.9707 33.7749ZM23.2324 31.1602V30.1602H22.2324V31.1602H23.2324ZM26.8418 31.1602H27.8418V30.1602H26.8418V31.1602ZM27.457 32.9341L26.7747 33.6651L26.781 33.671L26.7874 33.6768L27.457 32.9341ZM30.8818 33.1187L31.4767 33.9225L31.4793 33.9205L30.8818 33.1187ZM32.4048 32.0317C32.4048 31.2339 32.1023 30.5182 31.4567 30.0135L30.2249 31.5891C30.3313 31.6722 30.4048 31.7768 30.4048 32.0317H32.4048ZM31.4637 30.019C30.9493 29.6094 30.1538 29.2607 29.2006 28.9407L28.564 30.8367C29.4839 31.1455 29.994 31.4053 30.2179 31.5835L31.4637 30.019ZM29.2006 28.9407C28.2883 28.6344 27.5685 28.3465 27.0285 28.0796L26.1424 29.8726C26.7918 30.1936 27.6033 30.5141 28.564 30.8367L29.2006 28.9407ZM27.0263 28.0785C25.3133 27.2371 24.6836 26.2207 24.6836 25.0591H22.6836C22.6836 27.2197 23.9884 28.8146 26.1446 29.8737L27.0263 28.0785ZM24.6836 25.0591C24.6836 24.4397 24.8576 23.9268 25.1972 23.4805L23.6055 22.2695C22.9881 23.081 22.6836 24.0241 22.6836 25.0591H24.6836ZM25.1962 23.4818C25.5522 23.0155 26.0754 22.6227 26.8198 22.3284L26.0845 20.4685C25.0652 20.8715 24.2212 21.463 23.6065 22.2682L25.1962 23.4818ZM26.826 22.3259C27.5718 22.0253 28.4334 21.8652 29.4258 21.8652V19.8652C28.217 19.8652 27.0961 20.0607 26.0783 20.471L26.826 22.3259ZM29.4258 21.8652C30.3788 21.8652 31.1957 22.0348 31.8955 22.3508L32.7187 20.5281C31.7233 20.0785 30.6192 19.8652 29.4258 19.8652V21.8652ZM31.8983 22.3521C32.5976 22.6653 33.1061 23.0948 33.4631 23.6329L35.1297 22.5272C34.5433 21.6434 33.7257 20.9792 32.716 20.5268L31.8983 22.3521ZM33.4656 23.6366C33.8188 24.1639 34.0039 24.7739 34.0039 25.5H36.0039C36.0039 24.4078 35.7173 23.4044 35.1272 22.5235L33.4656 23.6366ZM35.0039 24.5H31.415V26.5H35.0039V24.5ZM32.415 25.5C32.415 24.671 32.1492 23.9021 31.5163 23.3383L30.1859 24.8316C30.3049 24.9377 30.415 25.1122 30.415 25.5H32.415ZM31.5231 23.3444C30.9235 22.8004 30.1572 22.5825 29.3438 22.5825V24.5825C29.8018 24.5825 30.0404 24.6996 30.1791 24.8255L31.5231 23.3444ZM29.3438 22.5825C28.5595 22.5825 27.8123 22.7577 27.209 23.2184L28.4228 24.808C28.5714 24.6945 28.8428 24.5825 29.3438 24.5825V22.5825ZM27.2112 23.2167C26.6102 23.673 26.2622 24.3187 26.2622 25.0898H28.2622C28.2622 24.986 28.2833 24.9139 28.4206 24.8096L27.2112 23.2167ZM26.2622 25.0898C26.2622 25.8846 26.7049 26.4969 27.269 26.9293L28.4859 25.3421C28.3558 25.2424 28.2999 25.1686 28.2779 25.1314C28.2605 25.1017 28.2622 25.0927 28.2622 25.0898H26.2622ZM27.2774 26.9357C27.8285 27.3491 28.6855 27.7111 29.7324 28.0508L30.3497 26.1484C29.332 25.8182 28.7466 25.5376 28.4774 25.3357L27.2774 26.9357ZM29.7381 28.0526C30.7275 28.3671 31.503 28.6966 32.084 29.0321L33.084 27.3C32.3388 26.8698 31.419 26.4883 30.344 26.1466L29.7381 28.0526ZM32.0847 29.0324C33.4401 29.8135 34.0039 30.7912 34.0039 32.0112H36.0039C36.0039 29.9637 34.9544 28.3779 33.0833 27.2996L32.0847 29.0324ZM34.0039 32.0112C34.0039 33.0247 33.6422 33.7463 32.9238 34.2901L34.1309 35.8847C35.3813 34.9383 36.0039 33.6091 36.0039 32.0112H34.0039ZM32.9238 34.2901C32.1695 34.861 31.0582 35.2051 29.4771 35.2051V37.2051C31.3276 37.2051 32.9164 36.804 34.1309 35.8847L32.9238 34.2901ZM29.4771 35.2051C28.3876 35.2051 27.4293 35.0117 26.5864 34.6429L25.7847 36.4752C26.9105 36.9678 28.1465 37.2051 29.4771 37.2051V35.2051ZM26.5941 34.6463C25.7566 34.2715 25.1801 33.7888 24.8039 33.222L23.1375 34.3279C23.7594 35.2649 24.6594 35.9716 25.777 36.4718L26.5941 34.6463ZM24.8097 33.2307C24.4319 32.6483 24.2324 31.9692 24.2324 31.1602H22.2324C22.2324 32.3199 22.5252 33.384 23.1317 34.3191L24.8097 33.2307ZM23.2324 32.1602H26.8418V30.1602H23.2324V32.1602ZM25.8418 31.1602C25.8418 32.1169 26.0882 33.0244 26.7747 33.6651L28.1393 32.203C28.0055 32.0781 27.8418 31.803 27.8418 31.1602H25.8418ZM26.7874 33.6768C27.476 34.2976 28.4516 34.498 29.4771 34.498V32.498C28.6432 32.498 28.2721 32.3225 28.1267 32.1914L26.7874 33.6768ZM29.4771 34.498C30.2027 34.498 30.9061 34.3447 31.4767 33.9225L30.287 32.3148C30.174 32.3984 29.9408 32.498 29.4771 32.498V34.498ZM31.4793 33.9205C32.101 33.4573 32.4048 32.787 32.4048 32.0317H30.4048C30.4048 32.2062 30.36 32.2604 30.2844 32.3168L31.4793 33.9205ZM45.3296 33.2109L46.2841 32.9127L46.0648 32.2109H45.3296V33.2109ZM40.3975 33.2109V32.2109H39.6597L39.442 32.9159L40.3975 33.2109ZM39.5361 36V37H40.2739L40.4916 36.2951L39.5361 36ZM35.6909 36L34.7521 35.6557L34.259 37H35.6909V36ZM41.1665 21.0703V20.0703H40.4681L40.2277 20.726L41.1665 21.0703ZM44.5503 21.0703L45.4883 20.7237L45.2469 20.0703H44.5503V21.0703ZM50.0669 36V37H51.5025L51.0049 35.6534L50.0669 36ZM46.2012 36L45.2467 36.2983L45.466 37H46.2012V36ZM41.2588 30.4321L40.3033 30.137L39.9033 31.4321H41.2588V30.4321ZM44.4683 30.4321V31.4321H45.8264L45.4232 30.1353L44.4683 30.4321ZM42.8584 25.2539L43.8133 24.957L42.8553 21.8757L41.9029 24.9588L42.8584 25.2539ZM45.3296 32.2109H40.3975V34.2109H45.3296V32.2109ZM39.442 32.9159L38.5807 35.7049L40.4916 36.2951L41.3529 33.506L39.442 32.9159ZM39.5361 35H35.6909V37H39.5361V35ZM36.6298 36.3443L42.1054 21.4146L40.2277 20.726L34.7521 35.6557L36.6298 36.3443ZM41.1665 22.0703H44.5503V20.0703H41.1665V22.0703ZM43.6123 21.4169L49.1289 36.3466L51.0049 35.6534L45.4883 20.7237L43.6123 21.4169ZM50.0669 35H46.2012V37H50.0669V35ZM47.1557 35.7017L46.2841 32.9127L44.3751 33.5092L45.2467 36.2983L47.1557 35.7017ZM41.2588 31.4321H44.4683V29.4321H41.2588V31.4321ZM45.4232 30.1353L43.8133 24.957L41.9035 25.5508L43.5133 30.729L45.4232 30.1353ZM41.9029 24.9588L40.3033 30.137L42.2142 30.7273L43.8138 25.5491L41.9029 24.9588Z" fill="#66F050"/>
</svg>
