<svg width="60" height="60" viewBox="0 0 60 60" fill="none" xmlns="http://www.w3.org/2000/svg">
<ellipse cx="29.6292" cy="29.517" rx="29.6292" ry="29.517" fill="white"/>
<path d="M30.012 21.4071C29.4902 21.4071 29.0449 21.5524 28.6759 21.8432C28.3071 22.134 28.1231 22.4844 28.1231 22.8942C28.1231 23.2908 28.307 23.6341 28.6759 23.9249C29.0449 24.2157 29.4902 24.3615 30.012 24.3615C30.516 24.3615 30.9523 24.2157 31.3212 23.9249C31.6901 23.6341 31.8747 23.2908 31.8747 22.8942C31.8747 22.4844 31.6902 22.134 31.3212 21.8432C30.9523 21.5524 30.516 21.4071 30.012 21.4071ZM34.059 24.2426C34.1129 24.4673 34.1399 24.7644 34.1399 25.1345V25.9075H32.8177V27.8306C33.1956 27.791 33.5012 27.7718 33.7352 27.7718L34.14 27.791V27.8307H34.1131V31.3797C34.1131 32.4901 34.3026 33.3031 34.6805 33.8187C35.1844 34.506 36.0931 34.8494 37.4067 34.8494C38.3425 34.8494 39.1432 34.7175 39.8091 34.453V32.4703C39.3591 32.6951 38.8551 32.8072 38.2972 32.8072C37.5055 32.8072 37.1099 32.3644 37.1099 31.4787V27.791H38.2703C38.4863 27.791 38.7159 27.7976 38.9588 27.8107C39.2018 27.824 39.3677 27.8305 39.4577 27.8305V25.9074H37.11V25.0947C37.11 24.7775 37.1371 24.4936 37.191 24.2424H34.0593L34.059 24.2425L34.059 24.2426ZM21.6977 25.8084C20.474 25.8084 19.4216 26.1061 18.5398 26.7009C17.6221 27.3353 17.1628 28.1281 17.1628 29.0799C17.1628 29.7143 17.4145 30.3092 17.9183 30.8643C18.3682 31.3797 18.8814 31.7104 19.4573 31.8559V31.8955C18.8814 32.0804 18.5938 32.5433 18.5938 33.2835C18.5938 33.8519 18.8994 34.2745 19.5113 34.552V34.5917C17.8378 35.0014 17.001 35.7613 17.001 36.8716C17.001 37.8366 17.559 38.5441 18.6748 38.9935C19.5564 39.3504 20.681 39.5286 22.0486 39.5286C25.3777 39.5286 27.0423 38.5042 27.0423 36.4553C27.0423 35.1733 25.7555 34.3868 23.182 34.0961C22.5882 34.0301 22.1387 33.8717 21.8328 33.6205C21.5988 33.4487 21.4819 33.2764 21.4819 33.1046C21.4819 32.6155 21.8417 32.3316 22.5613 32.2523C23.659 32.1334 24.5545 31.76 25.2474 31.1321C25.9402 30.5042 26.2867 29.7672 26.2867 28.9213C26.2867 28.6569 26.2148 28.373 26.0709 28.069C26.5388 27.9897 26.8982 27.917 27.1502 27.851V25.8083C26.0164 26.1256 25.0179 26.2846 24.1542 26.2846C23.3983 25.9674 22.5796 25.8083 21.6978 25.8083V25.8084H21.6977ZM28.4739 25.9075C28.5099 26.1454 28.5279 26.5752 28.5279 27.1964V33.3628C28.5279 33.9973 28.5099 34.4463 28.4739 34.7106H31.5239C31.4879 34.4066 31.4699 33.9175 31.4699 33.2433V27.1567C31.4699 26.5752 31.4879 26.1586 31.5239 25.9075H28.4739V25.9075ZM21.8057 27.6325C22.3456 27.6325 22.768 27.7849 23.074 28.0889C23.3258 28.3666 23.4517 28.6966 23.4517 29.0799C23.4517 30.0052 22.9034 30.4679 21.8057 30.4679C20.6721 30.4679 20.1049 30.0118 20.1049 29.0997C20.1049 28.1217 20.6721 27.6325 21.8057 27.6325ZM21.9946 35.7022C23.5063 35.7022 24.2621 36.0389 24.2621 36.713C24.2621 37.4268 23.5692 37.7839 22.1835 37.7839C20.6 37.7839 19.8082 37.4399 19.8082 36.7526C19.8082 36.0521 20.537 35.7022 21.9947 35.7022L21.9946 35.7022V35.7022Z" fill="#FF7527"/>
</svg>
